<?xml version="1.0" encoding="utf-8"?>
<!-- Generator: Adobe Illustrator 23.0.0, SVG Export Plug-In . SVG Version: 6.00 Build 0)  -->
<svg version="1.1" id="Calque_1" xmlns="http://www.w3.org/2000/svg" xmlns:xlink="http://www.w3.org/1999/xlink" x="0px" y="0px"
	 viewBox="0 0 318.55 365.23" style="enable-background:new 0 0 318.55 365.23;" xml:space="preserve">
<style type="text/css">
	.st0{fill:#FCB316;}
	.st1{fill:#FFFFFF;}
</style>
<path class="st0" d="M278.98,313.71H55.61c-6.6,0-12-5.4-12-12V75.75c0-6.6,5.4-12,12-12h223.37c6.6,0,12,5.4,12,12v225.96
	C290.98,308.31,285.58,313.71,278.98,313.71z"/>
<g>
	<path class="st1" d="M89.89,159.75v45.27c0,4.48,0.99,7.94,2.97,10.37c1.98,2.43,4.99,3.64,9.02,3.64s7.08-1.23,9.13-3.7
		c2.05-2.47,3.08-5.9,3.08-10.31v-45.27h21.96v45.27c0,7.47-1.51,13.82-4.54,19.05c-3.03,5.23-7.15,9.17-12.38,11.82
		c-5.23,2.65-11.13,3.98-17.7,3.98c-6.57,0-12.38-1.31-17.42-3.92c-5.04-2.61-8.98-6.54-11.82-11.77
		c-2.84-5.23-4.26-11.62-4.26-19.16v-45.27H89.89z"/>
	<path class="st1" d="M162.16,208.39v30.7h-12.77v-79.11h26.89c9.11,0,15.97,2.17,20.56,6.5c4.59,4.33,6.89,10.27,6.89,17.82
		c0,7.47-2.35,13.35-7.06,17.65c-4.71,4.3-11.51,6.44-20.39,6.44H162.16z M190.74,184.29c0-4.48-1.25-7.9-3.75-10.25
		c-2.5-2.35-6.52-3.53-12.05-3.53h-12.77v27.45h12.77C185.47,197.97,190.74,193.41,190.74,184.29z"/>
	<path class="st1" d="M227.71,208.39v30.7h-12.77v-79.11h26.89c9.11,0,15.97,2.17,20.56,6.5c4.59,4.33,6.89,10.27,6.89,17.82
		c0,7.47-2.35,13.35-7.06,17.65c-4.71,4.3-11.51,6.44-20.39,6.44H227.71z M256.29,184.29c0-4.48-1.25-7.9-3.75-10.25
		c-2.5-2.35-6.52-3.53-12.05-3.53h-12.77v27.45h12.77C251.02,197.97,256.29,193.41,256.29,184.29z"/>
</g>
</svg>
