<?xml version="1.0" encoding="utf-8"?>
<!-- Generator: Adobe Illustrator 23.0.0, SVG Export Plug-In . SVG Version: 6.00 Build 0)  -->
<svg version="1.1" id="Calque_1" xmlns="http://www.w3.org/2000/svg" xmlns:xlink="http://www.w3.org/1999/xlink" x="0px" y="0px"
	 viewBox="0 0 318.55 365.23" style="enable-background:new 0 0 318.55 365.23;" xml:space="preserve">
<style type="text/css">
	.st0{fill:#7A7C7D;}
	.st1{fill:#FCB316;}
	.st2{fill:#FFFFFF;}
</style>
<g>
	<path class="st0" d="M117.36,289.5c-0.71,1.26-1.79,2.28-3.24,3.05c-1.45,0.77-3.22,1.15-5.33,1.15c-2.05,0-3.88-0.36-5.5-1.09
		c-1.62-0.72-2.91-1.74-3.88-3.05c-0.97-1.31-1.52-2.81-1.66-4.52h5.2c0.14,1.31,0.7,2.43,1.68,3.37c0.98,0.94,2.29,1.41,3.94,1.41
		c1.48,0,2.62-0.4,3.43-1.19c0.81-0.79,1.21-1.82,1.21-3.07c0-1.08-0.3-1.97-0.9-2.66c-0.6-0.7-1.34-1.24-2.22-1.64
		c-0.88-0.4-2.09-0.85-3.62-1.36c-1.88-0.6-3.4-1.19-4.58-1.79c-1.18-0.6-2.18-1.46-3-2.6c-0.82-1.14-1.24-2.63-1.24-4.47
		c0-1.62,0.4-3.04,1.19-4.26c0.8-1.22,1.93-2.17,3.41-2.83c1.48-0.67,3.18-1,5.11-1c3.07,0,5.5,0.74,7.31,2.22
		c1.8,1.48,2.83,3.41,3.09,5.8h-5.24c-0.2-1.14-0.73-2.11-1.6-2.92c-0.87-0.81-2.05-1.21-3.56-1.21c-1.36,0-2.46,0.35-3.28,1.04
		c-0.82,0.7-1.24,1.7-1.24,3c0,1.02,0.28,1.87,0.85,2.54c0.57,0.67,1.29,1.19,2.15,1.58c0.87,0.38,2.05,0.83,3.56,1.34
		c1.9,0.6,3.46,1.2,4.67,1.81c1.21,0.61,2.23,1.5,3.07,2.66c0.84,1.17,1.26,2.7,1.26,4.6C118.42,286.87,118.07,288.24,117.36,289.5z
		"/>
	<path class="st0" d="M142.63,263.31v3.92h-8.4v26.17h-4.9v-26.17h-8.35v-3.92H142.63z"/>
	<path class="st0" d="M150.9,263.31v17.86c0,2.67,0.59,4.66,1.77,5.97c1.18,1.31,2.83,1.96,4.96,1.96c2.1,0,3.74-0.65,4.92-1.96
		c1.18-1.31,1.77-3.3,1.77-5.97v-17.86h4.86v17.86c0,4.12-1.07,7.24-3.2,9.35c-2.13,2.12-4.94,3.17-8.44,3.17
		c-3.47,0-6.25-1.06-8.35-3.17c-2.1-2.12-3.15-5.23-3.15-9.35v-17.86H150.9z"/>
	<path class="st0" d="M179.7,281.72v11.68h-4.86v-30.09h10.23c3.47,0,6.07,0.82,7.82,2.47c1.75,1.65,2.62,3.91,2.62,6.78
		c0,2.84-0.9,5.08-2.69,6.71c-1.79,1.63-4.38,2.45-7.76,2.45H179.7z M190.57,272.56c0-1.7-0.48-3-1.43-3.9
		c-0.95-0.9-2.48-1.34-4.58-1.34h-4.86v10.44h4.86C188.57,277.76,190.57,276.03,190.57,272.56z"/>
	<path class="st0" d="M204.63,281.72v11.68h-4.86v-30.09H210c3.47,0,6.07,0.82,7.82,2.47c1.75,1.65,2.62,3.91,2.62,6.78
		c0,2.84-0.9,5.08-2.69,6.71c-1.79,1.63-4.38,2.45-7.76,2.45H204.63z M215.5,272.56c0-1.7-0.48-3-1.43-3.9
		c-0.95-0.9-2.48-1.34-4.58-1.34h-4.86v10.44h4.86C213.5,277.76,215.5,276.03,215.5,272.56z"/>
</g>
<path class="st1" d="M228.52,232.01H90.04c-6.6,0-12-5.4-12-12V79.83c0-6.6,5.4-12,12-12h138.48c6.6,0,12,5.4,12,12v140.18
	C240.52,226.61,235.12,232.01,228.52,232.01z"/>
<g>
	<path class="st2" d="M108.43,130.89v29.74c0,2.94,0.65,5.21,1.95,6.81c1.3,1.6,3.28,2.39,5.93,2.39s4.65-0.81,6-2.43
		c1.35-1.62,2.02-3.88,2.02-6.77v-29.74h14.43v29.74c0,4.91-0.99,9.08-2.98,12.51c-1.99,3.44-4.7,6.02-8.13,7.77
		c-3.44,1.74-7.31,2.61-11.63,2.61c-4.32,0-8.13-0.86-11.45-2.58c-3.31-1.72-5.9-4.29-7.77-7.73c-1.87-3.43-2.8-7.63-2.8-12.59
		v-29.74H108.43z"/>
	<path class="st2" d="M155.91,162.83V183h-8.39v-51.96h17.67c5.99,0,10.49,1.42,13.51,4.27c3.02,2.85,4.53,6.75,4.53,11.7
		c0,4.91-1.55,8.77-4.64,11.59c-3.09,2.82-7.56,4.23-13.4,4.23H155.91z M174.67,147.01c0-2.94-0.82-5.19-2.47-6.73
		c-1.64-1.55-4.28-2.32-7.91-2.32h-8.39v18.03h8.39C171.21,155.99,174.67,153,174.67,147.01z"/>
	<path class="st2" d="M198.96,162.83V183h-8.39v-51.96h17.67c5.99,0,10.49,1.42,13.51,4.27c3.02,2.85,4.53,6.75,4.53,11.7
		c0,4.91-1.55,8.77-4.64,11.59c-3.09,2.82-7.56,4.23-13.4,4.23H198.96z M217.73,147.01c0-2.94-0.82-5.19-2.47-6.73
		c-1.64-1.55-4.28-2.32-7.91-2.32h-8.39v18.03h8.39C214.27,155.99,217.73,153,217.73,147.01z"/>
</g>
</svg>
